# xmcd CD database file
#
# Track frame offsets:
#	183
#	34515
#	76285
#	105910
#	127145
#	164703
#	193638
#
# Disc length: 3459 seconds
#
# Revision: 0
# Processed by: cddbd v1.5.2PL0 Copyright (c) Steve Scherf et al.
# Submitted via: CDex 1.51
#
DISCID=540d8107
DTITLE=Dankworth, John, Big Band - Live at Ronnie Scott's
DYEAR=1990
DGENRE=Jazz
TTITLE0=Caravan
TTITLE1=Old Blues
TTITLE2=Bye Bye Manuel
TTITLE3=Stomping at the Savoy
TTITLE4=Starburst
TTITLE5=Georgia on My Mind
TTITLE6=Take the A Train
EXTD=YEAR: 1990
EXTT0=
EXTT1=
EXTT2=
EXTT3=
EXTT4=
EXTT5=
EXTT6=
PLAYORDER=
